<svg width="1000" height="260" viewBox="0 0 1000 260" xmlns="http://www.w3.org/2000/svg" role="img" aria-label="Vision-Language-Action workflow">
  <rect width="1000" height="260" fill="#ffffff"/>
  <text x="500" y="36" text-anchor="middle" font-family="Arial" font-size="24" font-weight="700" fill="#172033">Vision-Language-Action Project Workflow</text>
  <defs>
    <marker id="arrow" markerWidth="10" markerHeight="10" refX="8" refY="3" orient="auto" markerUnits="strokeWidth">
      <path d="M0,0 L0,6 L9,3 z" fill="#46505a" />
    </marker>
  </defs>
  <g font-family="Arial" font-size="15" font-weight="700" fill="#172033">
    <rect x="45" y="92" width="150" height="78" rx="10" fill="#edf4ff" stroke="#2f6fbb" stroke-width="2"/>
    <text x="120" y="126" text-anchor="middle">Vision</text><text x="120" y="148" text-anchor="middle">Signals</text>
    <line x1="205" y1="131" x2="275" y2="131" stroke="#46505a" stroke-width="3" marker-end="url(#arrow)"/>
    <rect x="285" y="92" width="150" height="78" rx="10" fill="#edf4ff" stroke="#2f6fbb" stroke-width="2"/>
    <text x="360" y="126" text-anchor="middle">Scene</text><text x="360" y="148" text-anchor="middle">Summary</text>
    <line x1="445" y1="131" x2="515" y2="131" stroke="#46505a" stroke-width="3" marker-end="url(#arrow)"/>
    <rect x="525" y="92" width="150" height="78" rx="10" fill="#edf4ff" stroke="#2f6fbb" stroke-width="2"/>
    <text x="600" y="126" text-anchor="middle">Language</text><text x="600" y="148" text-anchor="middle">Reasoning</text>
    <line x1="685" y1="131" x2="755" y2="131" stroke="#46505a" stroke-width="3" marker-end="url(#arrow)"/>
    <rect x="765" y="92" width="150" height="78" rx="10" fill="#edf4ff" stroke="#2f6fbb" stroke-width="2"/>
    <text x="840" y="126" text-anchor="middle">Driving</text><text x="840" y="148" text-anchor="middle">Action</text>
  </g>
  <text x="500" y="222" text-anchor="middle" font-family="Arial" font-size="15" fill="#46505a">Camera, LiDAR, maps, and scene labels are converted into language-grounded driving decisions.</text>
</svg>
